<svg aria-hidden="true" style="position: absolute; width: 0; height: 0; overflow: hidden;" version="1.1" xmlns="http://www.w3.org/2000/svg" xmlns:xlink="http://www.w3.org/1999/xlink">
<defs>
<symbol id="icon-row-left" viewBox="0 0 20 20">
<title>row-left</title>
<path d="M16.875 10.625c0.345 0 0.625-0.28 0.625-0.625s-0.28-0.625-0.625-0.625h-13.75c-0.345 0-0.625 0.28-0.625 0.625s0.28 0.625 0.625 0.625h13.75z"></path>
<path d="M7.174 14.933c0.244 0.244 0.64 0.244 0.884 0s0.244-0.64 0-0.884l-4.049-4.049 4.049-4.049c0.244-0.244 0.244-0.64 0-0.884s-0.64-0.244-0.884 0l-4.491 4.491c-0.244 0.244-0.244 0.64 0 0.884l0-0 4.491 4.491z"></path>
</symbol>
<symbol id="icon-row-right" viewBox="0 0 20 20">
<title>row-right</title>
<path d="M3.125 9.375c-0.345 0-0.625 0.28-0.625 0.625s0.28 0.625 0.625 0.625h13.75c0.345 0 0.625-0.28 0.625-0.625s-0.28-0.625-0.625-0.625h-13.75z"></path>
<path d="M12.826 5.067c-0.244-0.244-0.64-0.244-0.884 0s-0.244 0.64 0 0.884l4.049 4.049-4.049 4.049c-0.244 0.244-0.244 0.64 0 0.884s0.64 0.244 0.884 0l4.491-4.491c0.244-0.244 0.244-0.64 0-0.884l-0 0-4.491-4.491z"></path>
</symbol>
</defs>
</svg>
