<!-- Generated by IcoMoon.io -->
<svg version="1.1" xmlns="http://www.w3.org/2000/svg" fill="#ff6b08" width="16" height="20" viewBox="0 0 16 20">
<title>noun_call</title>

<path d="M2.328 0.314c-0.258 0.012-0.511 0.122-0.696 0.326l-1.297 1.426c0.002-0.004-0.005-0.004-0.042 0.048-0.019 0.025-0.034 0.055-0.044 0.086l-0.001 0.002c-0.528 1.682-0.174 3.532 0.688 5.292s2.238 3.444 3.817 4.826c1.579 1.382 3.361 2.463 5.059 2.999s3.346 0.529 4.567-0.356c0.014-0.010 0.026-0.021 0.037-0.032l0-0c0.032-0.032 0.033-0.036 0.028-0.031l0.005-0.006 1.291-1.42c0.371-0.408 0.341-1.049-0.067-1.42l-3.063-2.786c-0.408-0.371-1.049-0.341-1.42 0.066l-1.386 1.524c-1.125-0.326-2.087-0.878-3.012-1.719s-1.566-1.747-1.997-2.837l1.385-1.524c0.371-0.408 0.341-1.049-0.066-1.42l-3.063-2.786c-0.204-0.186-0.466-0.271-0.724-0.259zM2.358 0.94c0.095-0.004 0.191 0.029 0.27 0.1l3.063 2.786c0.158 0.143 0.169 0.373 0.025 0.53l-1.531 1.683c-0.051 0.056-0.081 0.13-0.081 0.211 0 0.039 0.007 0.076 0.020 0.11l-0.001-0.002c0.465 1.268 1.215 2.309 2.246 3.247s2.138 1.587 3.444 1.93c0.024 0.007 0.052 0.010 0.080 0.010 0.092 0 0.175-0.040 0.233-0.103l0-0 1.532-1.684c0.143-0.158 0.372-0.168 0.53-0.025l3.063 2.786c0.158 0.143 0.168 0.372 0.025 0.53l-1.28 1.408c-1.002 0.719-2.413 0.759-3.993 0.26-1.586-0.501-3.309-1.538-4.833-2.872s-2.851-2.963-3.666-4.627c-0.807-1.647-1.1-3.312-0.656-4.779l1.251-1.375c0.072-0.079 0.165-0.121 0.26-0.126z"></path>
</svg>
